<svg id="Component_14_3" data-name="Component 14 – 3" xmlns="http://www.w3.org/2000/svg" xmlns:xlink="http://www.w3.org/1999/xlink" width="116.64" height="39.613" viewBox="0 0 116.64 39.613">
  <defs>
    <clipPath id="clip-path">
      <rect id="Rectangle_8" data-name="Rectangle 8" width="116.64" height="39.613" fill="#ff3600"/>
    </clipPath>
  </defs>
  <rect id="Rectangle_6" data-name="Rectangle 6" width="38.411" height="8.055" transform="translate(35.173 4.381)" fill="#ff3600"/>
  <g id="Group_6" data-name="Group 6">
    <g id="Group_5" data-name="Group 5" clip-path="url(#clip-path)">
      <path id="Path_6" data-name="Path 6" d="M10.561,38.7H25.987a29.409,29.409,0,0,0-1.224,8.44H.028C.01,46.78,0,46.416,0,46.048A23.428,23.428,0,0,1,1.174,38.7a22.314,22.314,0,0,1,.807-2.108A23.729,23.729,0,0,1,9.8,26.94,27.4,27.4,0,0,0,15,22.834a14.842,14.842,0,0,0,3.593-9.7q0-.523-.034-1.035H27.2c.019.341.026.686.026,1.035a23.934,23.934,0,0,1-.148,2.62,23.323,23.323,0,0,1-1.831,6.832.184.184,0,0,1-.011.026,23.706,23.706,0,0,1-3.905,6.1,29.882,29.882,0,0,1-5.289,4.511,28.371,28.371,0,0,0-2.69,1.976,13.867,13.867,0,0,0-2.192,2.531,6.6,6.6,0,0,1-.6.972" transform="translate(-0.001 -7.527)" fill="#ff3600"/>
      <path id="Path_7" data-name="Path 7" d="M127.14,57.676a23.531,23.531,0,0,0-21.961-15.082h-.062A23.493,23.493,0,0,0,81.6,66.114h8.628a15.029,15.029,0,0,1,.1-1.754,14.793,14.793,0,0,1,2.259-6.3,15.348,15.348,0,0,1,1.146-1.478l.093-.111q.478-.562,1.009-1.075t1.11-.971q.58-.458,1.2-.858a14.829,14.829,0,0,1,7.122-2.32q.438-.026.877-.027a14.823,14.823,0,0,1,8.536,2.709,15,15,0,0,1,2.231,1.927,16.2,16.2,0,0,1,2.2,2.9q.128.216.245.438a14.487,14.487,0,0,1,.655,1.415,14.807,14.807,0,0,1,.881,3.261,15.044,15.044,0,0,1,.167,2.242H128.7a23.509,23.509,0,0,0-1.557-8.438" transform="translate(-50.77 -26.502)" fill="#ff3600"/>
      <rect id="Rectangle_7" data-name="Rectangle 7" width="38.411" height="8.055" transform="translate(78.229 4.381)" fill="#ff3600"/>
      <path id="Path_8" data-name="Path 8" d="M244.826,66.116H236.2a14.941,14.941,0,0,0-1.049-5.5,14.111,14.111,0,0,0-.656-1.414c-.077-.147-.159-.293-.244-.437a16.219,16.219,0,0,0-2.205-2.9,15.063,15.063,0,0,0-2.231-1.928,14.824,14.824,0,0,0-8.536-2.708c-.293,0-.585.009-.876.027a14.36,14.36,0,0,0-1.546.175,14.559,14.559,0,0,0-1.492.326,14.98,14.98,0,0,0-1.433.472,14.679,14.679,0,0,0-1.364.61,14.19,14.19,0,0,0-1.289.738c-.414.267-.817.552-1.2.857s-.758.631-1.11.972c-.219.211-.43.426-.633.65-.062-.175-.127-.349-.194-.522a29.379,29.379,0,0,0-4.114-7.347,23.427,23.427,0,0,1,15.22-5.587h.063a23.493,23.493,0,0,1,23.518,23.52" transform="translate(-128.186 -26.503)" fill="#ff3600"/>
      <path id="Path_9" data-name="Path 9" d="M0,6.234A6.235,6.235,0,0,1,11.776,3.378a6.218,6.218,0,0,1,.692,2.856,6.045,6.045,0,0,1-.049.784.031.031,0,0,1,0,.01,8.851,8.851,0,0,1-.293,1.24c-.013.041-.027.082-.04.122a.116.116,0,0,1-.006.017,6.24,6.24,0,0,1-5.208,4.028H0Z" transform="translate(0 0)" fill="#ff3600"/>
    </g>
  </g>
</svg>
